<svg width="55" height="56" viewBox="0 0 55 56" fill="none" xmlns="http://www.w3.org/2000/svg">
<path d="M27.6317 0.697533C23.9705 0.701863 20.3477 1.44449 16.9801 2.88102C13.6124 4.31754 10.569 6.41845 8.03192 9.05811C5.49481 11.6978 3.51609 14.822 2.21408 18.2439C0.912069 21.6658 0.313509 25.3151 0.454193 28.9737C1.0035 43.2818 12.7482 54.8172 27.0824 55.1049C31.8859 55.1985 36.6285 54.0182 40.8278 51.6842C45.0272 49.3502 48.5336 45.9457 50.9903 41.817C51.0931 41.6454 51.1446 41.4479 51.1387 41.2479C51.1327 41.048 51.0696 40.8539 50.9567 40.6888C50.8438 40.5236 50.686 40.3942 50.5019 40.316C50.3177 40.2378 50.115 40.214 49.9178 40.2475C49.1234 40.3878 48.3181 40.4578 47.5113 40.4568C42.7245 40.4568 40.0565 38.3642 38.644 36.6116C38.3178 36.1966 38.0207 35.7596 37.7546 35.3038C36.4883 37.0386 34.7981 38.4195 32.8456 39.3146C30.8932 40.2097 28.7438 40.5889 26.6029 40.416C24.462 40.2431 22.4013 39.524 20.6177 38.3272C18.8342 37.1305 17.3875 35.4962 16.4159 33.5807C15.4443 31.6652 14.9804 29.5324 15.0684 27.3864C15.1565 25.2403 15.7936 23.1528 16.9189 21.3233C18.0442 19.4938 19.6199 17.9836 21.4955 16.937C23.3712 15.8905 25.4839 15.3425 27.6317 15.3457C30.7255 15.3362 33.7111 16.4838 36.0021 18.563V17.5167C35.9935 16.9737 36.1912 16.4477 36.5553 16.0447C36.9194 15.6418 37.4228 15.392 37.9639 15.3457C38.2495 15.3278 38.5357 15.3687 38.8049 15.4658C39.0741 15.5629 39.3205 15.7142 39.5289 15.9103C39.7373 16.1065 39.9032 16.3433 40.0164 16.6061C40.1297 16.8689 40.1878 17.1521 40.1873 17.4383V27.9012C40.1873 31.7202 41.469 36.2716 47.5113 36.2716C53.5537 36.2716 54.7308 32.0341 54.8354 28.2936V27.9012C54.8285 20.6885 51.9602 13.7731 46.86 8.67296C41.7598 3.57278 34.8445 0.704458 27.6317 0.697533V0.697533Z" fill="url(#paint0_linear_155_240)"/>
<path d="M27.6316 36.2716C32.2544 36.2716 36.002 32.524 36.002 27.9012C36.002 23.2784 32.2544 19.5309 27.6316 19.5309C23.0088 19.5309 19.2612 23.2784 19.2612 27.9012C19.2612 32.524 23.0088 36.2716 27.6316 36.2716Z" fill="url(#paint1_linear_155_240)"/>
<defs>
<linearGradient id="paint0_linear_155_240" x1="81.9561" y1="43.69" x2="-32.9901" y2="42.6022" gradientUnits="userSpaceOnUse">
<stop stop-color="#76A5FF"/>
<stop offset="1" stop-color="#FFB5EA"/>
</linearGradient>
<linearGradient id="paint1_linear_155_240" x1="44.3477" y1="32.7581" x2="8.97571" y2="32.4232" gradientUnits="userSpaceOnUse">
<stop stop-color="#76A5FF"/>
<stop offset="1" stop-color="#FFB5EA"/>
</linearGradient>
</defs>
</svg>
