<svg width="70" height="41" viewBox="0 0 70 41" fill="none" xmlns="http://www.w3.org/2000/svg">
<path d="M62.7356 26.7546L62.7066 26.7378C60.8378 30.395 56.9474 32.7298 52.3556 32.7374C48.9307 32.7374 46.0504 31.5667 43.7145 29.2253C43.335 28.8324 42.9822 28.4146 42.6586 27.9747L42.6158 27.9166C41.6513 26.587 40.9748 25.071 40.6293 23.4654C40.5743 23.2394 40.5224 23.0073 40.4765 22.7829C40.3477 22.0261 40.2812 21.26 40.2779 20.4924C40.2779 16.9803 41.4484 14.1019 43.7099 11.764C46.0458 9.42975 48.9261 8.25905 52.351 8.25192C57.0192 8.26108 60.7553 10.518 62.5462 14.253L62.5767 14.2362L62.5859 14.253L69.8396 10.0431C66.7254 3.89385 60.0188 0 52.4503 0H52.4106C46.5597 0 41.647 1.94998 37.6664 5.92477C37.208 6.38287 36.8046 6.86998 36.4028 7.35862C36.3783 7.38764 36.3493 7.41512 36.3263 7.44566C36.2438 7.54644 36.146 7.63959 36.065 7.74037C35.6185 7.13651 35.1406 6.55647 34.6333 6.00264C30.9659 2.03244 26.2886 0 20.5935 0C14.5883 0 9.59157 1.94998 5.77145 5.92477C1.95132 9.82167 0 14.6546 0 20.5C0 26.4268 1.94928 31.3381 5.84785 35.234C9.74591 39.0531 14.9 41 21.2185 41C26.8173 41 31.3678 39.4302 34.9144 36.3228C33.0585 34.318 31.5782 31.9962 30.5442 29.4681C28.3194 31.9892 25.2388 33.2856 21.2964 33.2856C14.8221 33.2856 10.0637 30.0117 8.81685 24.0885H32.1487C32.7935 28.2114 34.5813 31.8013 37.5274 34.8782V34.9241C37.5763 34.976 37.6175 35.0294 37.6664 35.0768C41.6394 39.047 46.5597 41 52.4106 41H52.4503C60.0157 41 66.6475 37.1016 70 30.8668L62.7463 26.7439L62.7356 26.7546ZM8.73739 17.2276C9.90788 11.3013 14.2766 7.63959 20.5156 7.63959C26.0533 7.63959 30.4999 10.9135 31.6704 17.2276H8.73739Z" fill="black"/>
</svg>
