<svg width="164" height="57" viewBox="0 0 164 57" fill="none" xmlns="http://www.w3.org/2000/svg">
<g clip-path="url(#clip0_125_362)">
<path d="M71.1682 41.0472L71.1352 41.0284C69.0151 45.1238 64.6016 47.7385 59.3923 47.747C55.5069 47.747 52.2392 46.436 49.5892 43.814C49.1587 43.374 48.7585 42.9061 48.3914 42.4135L48.3428 42.3485C47.2487 40.8594 46.4812 39.1618 46.0893 37.3638C46.0268 37.1107 45.9679 36.8508 45.9159 36.5994C45.7697 35.7519 45.6943 34.894 45.6905 34.0344C45.6905 30.1013 47.0184 26.878 49.584 24.2599C52.234 21.6459 55.5017 20.3349 59.3871 20.3269C64.683 20.3371 68.9215 22.8645 70.9532 27.0472L70.9879 27.0284L70.9983 27.0472L79.2273 22.3327C75.6944 15.4465 68.0859 11.0859 59.4998 11.0859H59.4547C52.8171 11.0859 47.2438 13.2696 42.728 17.7208C42.2079 18.2338 41.7502 18.7793 41.2943 19.3265C41.2666 19.359 41.2337 19.3898 41.2077 19.424C41.114 19.5368 41.0031 19.6412 40.9112 19.754C40.4046 19.0778 39.8625 18.4282 39.2869 17.808C35.1264 13.362 29.8201 11.0859 23.3593 11.0859C16.5465 11.0859 10.8779 13.2696 6.5441 17.7208C2.21029 22.0848 -0.00341797 27.497 -0.00341797 34.0429C-0.00341797 40.6801 2.20798 46.1801 6.63078 50.5429C11.053 54.8196 16.9002 56.9999 24.0683 56.9999C30.4199 56.9999 35.5824 55.242 39.6059 51.7621C37.5004 49.5171 35.821 46.917 34.648 44.0859C32.124 46.9091 28.6292 48.3609 24.1567 48.3609C16.8118 48.3609 11.4136 44.6946 9.99902 38.0615H36.4682C37.1997 42.6785 39.228 46.6988 42.5702 50.1445V50.1958C42.6257 50.2539 42.6725 50.3138 42.728 50.3668C47.2351 54.8128 52.8171 56.9999 59.4547 56.9999H59.4998C68.0825 56.9999 75.606 52.6342 79.4093 45.6522L71.1803 41.0352L71.1682 41.0472ZM9.90887 30.3784C11.2368 23.7418 16.1929 19.6412 23.2709 19.6412C29.5532 19.6412 34.5977 23.3074 35.9256 30.3784H9.90887Z" fill="black"/>
<path d="M91.1661 0H81.6074V55.8663H91.1661V0Z" fill="black"/>
<path d="M153.027 12.2215V0H143.468V55.8663H153.027V21.2983H164V12.2215H153.027Z" fill="black"/>
<path d="M130.557 15.1712C127.859 13.3135 124.783 12.0599 121.542 11.498C120.865 11.3801 120.178 11.2877 119.481 11.2262C119.103 11.1902 118.717 11.1749 118.334 11.1543C117.987 11.1389 117.64 11.0876 117.294 11.0876C117.203 11.0876 117.12 11.0979 117.028 11.0996C116.936 11.1013 116.855 11.0876 116.763 11.0876C116.416 11.0876 116.08 11.1389 115.733 11.1543C115.345 11.1749 114.955 11.1902 114.575 11.2279C113.882 11.2877 113.211 11.3784 112.542 11.4946L112.466 11.51C105.724 12.707 100.003 16.6538 96.8536 22.4353L96.8987 22.461C94.9242 25.8383 93.9153 29.6824 93.9153 34.0429C93.9153 39.0396 95.2553 43.4036 97.9024 47.1878C101.023 52.1195 106.317 55.5088 112.495 56.5929C113.175 56.7109 113.859 56.8033 114.558 56.8648C114.936 56.9007 115.323 56.9161 115.706 56.9367C116.052 56.952 116.399 57.0033 116.746 57.0033C116.836 57.0033 116.919 56.9931 117.011 56.9914C117.103 56.9897 117.184 57.0033 117.276 57.0033C117.623 57.0033 117.959 56.952 118.306 56.9367C118.694 56.9161 119.084 56.9007 119.464 56.8631C120.157 56.8033 120.828 56.7126 121.499 56.5964L121.57 56.581C124.793 56.0178 127.856 54.778 130.552 52.9455V55.8679H140.107V12.2214H130.557V15.1712ZM126.663 43.8191C124.047 46.3995 120.827 47.694 117.009 47.7333C113.196 47.6923 109.982 46.3978 107.369 43.8208C104.804 41.2028 103.477 37.9708 103.477 34.0429C103.477 30.115 104.804 26.8865 107.369 24.2685C109.983 21.688 113.206 20.3936 117.023 20.3542C120.837 20.397 124.051 21.6898 126.663 24.2668C129.229 26.8865 130.557 30.1167 130.557 34.0446C130.557 37.9726 129.229 41.2011 126.663 43.8191Z" fill="black"/>
</g>
<defs>
<clipPath id="clip0_125_362">
<rect width="164" height="57" fill="white"/>
</clipPath>
</defs>
</svg>
