<svg width="241" height="57" viewBox="0 0 241 57" fill="none" xmlns="http://www.w3.org/2000/svg">
<path fill-rule="evenodd" clip-rule="evenodd" d="M17.4105 0C17.6927 0 17.9541 0.147629 18.0986 0.388629L34.708 28.0922C34.8587 28.3434 34.8587 28.6566 34.708 28.9078L18.0986 56.6114C17.9541 56.8524 17.6927 57 17.4105 57C17.1283 57 16.867 56.8524 16.7225 56.6114L0.112972 28.9078C-0.0376573 28.6566 -0.0376573 28.3434 0.112972 28.0922L16.7225 0.388629C16.867 0.147629 17.1283 0 17.4105 0ZM1.73356 28.5L17.4105 54.6482L33.0875 28.5L17.4105 2.35184L1.73356 28.5Z" fill="black"/>
<path fill-rule="evenodd" clip-rule="evenodd" d="M50.457 0C50.7374 0 50.9972 0.147029 51.1412 0.387243L67.7542 28.0908C67.9053 28.3427 67.9053 28.6573 67.7542 28.9092L51.1412 56.6128C50.9972 56.853 50.7374 57 50.457 57C50.1766 57 49.9169 56.853 49.7728 56.6128L33.1598 28.9092C33.0087 28.6573 33.0087 28.3427 33.1598 28.0908L49.7728 0.387243C49.9169 0.147029 50.1766 0 50.457 0ZM34.7736 28.5L50.457 54.6534L66.1404 28.5L50.457 2.34657L34.7736 28.5Z" fill="black"/>
<path fill-rule="evenodd" clip-rule="evenodd" d="M19.5853 22.2986C19.9577 22.5306 20.0727 23.0226 19.8422 23.3975L9.2301 40.6529C8.99955 41.0277 8.51075 41.1435 8.13833 40.9115C7.76591 40.6794 7.65089 40.1874 7.88143 39.8125L18.4935 22.5572C18.724 22.1823 19.2128 22.0665 19.5853 22.2986Z" fill="black"/>
<path fill-rule="evenodd" clip-rule="evenodd" d="M58.2865 12.3133C58.6613 12.5408 58.7817 13.0307 58.5554 13.4074L50.5085 26.8074L59.1097 41.6064C59.3305 41.9864 59.2032 42.4744 58.8252 42.6965C58.4472 42.9186 57.9618 42.7905 57.7409 42.4105L48.9022 27.2028C48.7558 26.9509 48.758 26.6387 48.908 26.3889L57.1983 12.5836C57.4245 12.2069 57.9118 12.0858 58.2865 12.3133Z" fill="black"/>
<path d="M93.1698 19.008H104.426V21.744H96.1938V25.92H103.994V28.656H96.1938V33.264H104.858V36H93.1698V19.008ZM112.954 27.12L107.29 19.008H111.106L115.114 25.296L119.074 19.008H122.746L117.178 27.12L123.346 36H119.506L115.018 28.824L110.554 36H106.906L112.954 27.12ZM125.279 27.576C125.279 26.216 125.503 24.984 125.951 23.88C126.399 22.76 127.015 21.808 127.799 21.024C128.599 20.24 129.543 19.64 130.631 19.224C131.735 18.792 132.943 18.576 134.255 18.576C135.583 18.56 136.799 18.76 137.903 19.176C139.007 19.576 139.959 20.168 140.759 20.952C141.559 21.736 142.183 22.68 142.631 23.784C143.079 24.888 143.303 26.12 143.303 27.48C143.303 28.808 143.079 30.016 142.631 31.104C142.183 32.192 141.559 33.128 140.759 33.912C139.959 34.696 139.007 35.312 137.903 35.76C136.799 36.192 135.583 36.416 134.255 36.432C132.943 36.432 131.735 36.224 130.631 35.808C129.543 35.376 128.599 34.776 127.799 34.008C127.015 33.224 126.399 32.288 125.951 31.2C125.503 30.112 125.279 28.904 125.279 27.576ZM128.447 27.384C128.447 28.296 128.583 29.136 128.855 29.904C129.143 30.672 129.543 31.336 130.055 31.896C130.567 32.456 131.175 32.896 131.879 33.216C132.599 33.536 133.399 33.696 134.279 33.696C135.159 33.696 135.959 33.536 136.679 33.216C137.399 32.896 138.015 32.456 138.527 31.896C139.039 31.336 139.431 30.672 139.703 29.904C139.991 29.136 140.135 28.296 140.135 27.384C140.135 26.536 139.991 25.744 139.703 25.008C139.431 24.272 139.039 23.632 138.527 23.088C138.015 22.528 137.399 22.096 136.679 21.792C135.959 21.472 135.159 21.312 134.279 21.312C133.399 21.312 132.599 21.472 131.879 21.792C131.175 22.096 130.567 22.528 130.055 23.088C129.543 23.632 129.143 24.272 128.855 25.008C128.583 25.744 128.447 26.536 128.447 27.384ZM149.04 34.416H152.4C153.696 34.416 154.816 34.224 155.76 33.84C156.72 33.44 157.512 32.92 158.136 32.28C158.776 31.624 159.248 30.888 159.552 30.072C159.856 29.24 160.008 28.384 160.008 27.504C160.008 26.624 159.856 25.776 159.552 24.96C159.248 24.128 158.776 23.392 158.136 22.752C157.512 22.096 156.72 21.576 155.76 21.192C154.816 20.792 153.696 20.592 152.4 20.592H149.04V34.416ZM147.312 19.008H152.952C154.008 19.008 155.064 19.184 156.12 19.536C157.192 19.888 158.152 20.424 159 21.144C159.864 21.848 160.56 22.736 161.088 23.808C161.616 24.864 161.88 26.096 161.88 27.504C161.88 28.928 161.616 30.168 161.088 31.224C160.56 32.28 159.864 33.168 159 33.888C158.152 34.592 157.192 35.12 156.12 35.472C155.064 35.824 154.008 36 152.952 36H147.312V19.008ZM168.029 36H166.301V19.008H168.029V36ZM186.141 22.128C185.565 21.52 184.877 21.04 184.077 20.688C183.277 20.336 182.349 20.16 181.293 20.16C180.205 20.16 179.229 20.36 178.365 20.76C177.501 21.16 176.765 21.696 176.157 22.368C175.565 23.04 175.109 23.824 174.789 24.72C174.469 25.6 174.309 26.528 174.309 27.504C174.309 28.48 174.469 29.416 174.789 30.312C175.109 31.192 175.565 31.968 176.157 32.64C176.765 33.312 177.501 33.848 178.365 34.248C179.229 34.648 180.205 34.848 181.293 34.848C182.173 34.848 183.013 34.744 183.813 34.536C184.629 34.312 185.357 34.016 185.997 33.648V27.96H181.941V26.376H187.725V34.704C186.765 35.264 185.709 35.696 184.557 36C183.421 36.288 182.333 36.432 181.293 36.432C180.029 36.432 178.853 36.208 177.765 35.76C176.693 35.312 175.757 34.696 174.957 33.912C174.173 33.112 173.557 32.168 173.109 31.08C172.661 29.992 172.437 28.8 172.437 27.504C172.437 26.208 172.661 25.016 173.109 23.928C173.557 22.84 174.173 21.904 174.957 21.12C175.757 20.32 176.693 19.696 177.765 19.248C178.853 18.8 180.029 18.576 181.293 18.576C182.653 18.576 183.821 18.768 184.797 19.152C185.789 19.52 186.669 20.088 187.437 20.856L186.141 22.128ZM194.956 36H193.228V19.008H194.956V36ZM205.965 36H204.237V20.592H198.549V19.008H211.653V20.592H205.965V36ZM215.849 29.952H223.217L219.545 21.024L215.849 29.952ZM213.329 36H211.313L218.705 19.008H220.385L227.777 36H225.761L223.889 31.536H215.201L213.329 36ZM232.758 34.416H240.678V36H231.03V19.008H232.758V34.416Z" fill="black"/>
</svg>
