<svg width="59" height="49" viewBox="0 0 59 49" fill="none" xmlns="http://www.w3.org/2000/svg">
<path fill-rule="evenodd" clip-rule="evenodd" d="M14.9669 0C15.2095 0 15.4342 0.12691 15.5584 0.334084L29.8367 24.1494C29.9662 24.3654 29.9662 24.6346 29.8367 24.8506L15.5584 48.6659C15.4342 48.8731 15.2095 49 14.9669 49C14.7243 49 14.4997 48.8731 14.3754 48.6659L0.0971161 24.8506C-0.032372 24.6346 -0.032372 24.3654 0.0971161 24.1494L14.3754 0.334084C14.4997 0.12691 14.7243 0 14.9669 0ZM1.49025 24.5L14.9669 46.9782L28.4436 24.5L14.9669 2.02176L1.49025 24.5Z" fill="black"/>
<path fill-rule="evenodd" clip-rule="evenodd" d="M43.3751 0C43.6162 0 43.8395 0.126393 43.9633 0.332893L58.2447 24.1482C58.3745 24.3648 58.3745 24.6352 58.2447 24.8518L43.9633 48.6671C43.8395 48.8736 43.6162 49 43.3751 49C43.1341 49 42.9108 48.8736 42.787 48.6671L28.5056 24.8518C28.3757 24.6352 28.3757 24.3648 28.5056 24.1482L42.787 0.332893C42.9108 0.126393 43.1341 0 43.3751 0ZM29.8929 24.5L43.3751 46.9828L56.8574 24.5L43.3751 2.01723L29.8929 24.5Z" fill="black"/>
<path fill-rule="evenodd" clip-rule="evenodd" d="M16.8365 19.169C17.1566 19.3685 17.2555 19.7914 17.0573 20.1137L7.93465 34.9473C7.73646 35.2695 7.31627 35.369 6.99611 35.1695C6.67596 34.9701 6.57709 34.5471 6.77527 34.2249L15.8979 19.3913C16.0961 19.069 16.5163 18.9695 16.8365 19.169Z" fill="black"/>
<path fill-rule="evenodd" clip-rule="evenodd" d="M50.1059 10.5852C50.428 10.7807 50.5315 11.2018 50.337 11.5257L43.4195 23.045L50.8135 35.7669C51.0033 36.0936 50.8938 36.5131 50.5689 36.704C50.244 36.8949 49.8267 36.7849 49.6368 36.4582L42.0386 23.3849C41.9128 23.1683 41.9147 22.8999 42.0436 22.6852L49.1703 10.8175C49.3648 10.4936 49.7837 10.3896 50.1059 10.5852Z" fill="black"/>
</svg>
