<svg width="51" height="57" viewBox="0 0 51 57" fill="none" xmlns="http://www.w3.org/2000/svg">
<path d="M50.4956 50.2223C50.4956 50.7773 50.2752 51.3096 49.8827 51.702C49.4903 52.0944 48.958 52.3149 48.403 52.3149C46.1852 52.308 44.0602 51.4239 42.4919 49.8557C40.9237 48.2874 40.0396 46.1624 40.0327 43.9445V41.852C40.0327 40.742 39.5917 39.6775 38.8069 38.8926C38.022 38.1077 36.9575 37.6668 35.8475 37.6668H32.7086V48.1297C32.7086 49.2397 33.1495 50.3042 33.9344 51.0891C34.7193 51.874 35.7838 52.3149 36.8938 52.3149C37.4488 52.3149 37.981 52.5354 38.3735 52.9278C38.7659 53.3203 38.9864 53.8525 38.9864 54.4075C38.9864 54.9625 38.7659 55.4948 38.3735 55.8872C37.981 56.2796 37.4488 56.5001 36.8938 56.5001C34.6759 56.4932 32.5509 55.6091 30.9827 54.0409C29.4144 52.4726 28.5303 50.3476 28.5234 48.1297V37.6668H22.2456V48.1297C22.2387 50.3476 21.3547 52.4726 19.7864 54.0409C18.2181 55.6091 16.0931 56.4932 13.8753 56.5001C13.3203 56.5001 12.788 56.2796 12.3956 55.8872C12.0032 55.4948 11.7827 54.9625 11.7827 54.4075C11.7827 53.8525 12.0032 53.3203 12.3956 52.9278C12.788 52.5354 13.3203 52.3149 13.8753 52.3149C14.9853 52.3149 16.0498 51.874 16.8347 51.0891C17.6195 50.3042 18.0605 49.2397 18.0605 48.1297V37.6668H14.9216C13.8116 37.6668 12.7471 38.1077 11.9622 38.8926C11.1773 39.6775 10.7364 40.742 10.7364 41.852V43.9445C10.7295 46.1624 9.8454 48.2874 8.27715 49.8557C6.70889 51.4239 4.58387 52.308 2.36603 52.3149C1.81104 52.3149 1.27878 52.0944 0.886344 51.702C0.493907 51.3096 0.273438 50.7773 0.273438 50.2223C0.273438 49.6673 0.493907 49.1351 0.886344 48.7426C1.27878 48.3502 1.81104 48.1297 2.36603 48.1297C3.47601 48.1297 4.54053 47.6888 5.3254 46.9039C6.11027 46.119 6.55121 45.0545 6.55121 43.9445V41.852C6.55293 40.4446 6.90835 39.0603 7.58481 37.8263C8.26127 36.5922 9.23706 35.5479 10.4225 34.7895C8.57386 33.4337 7.07058 31.6615 6.03445 29.6165C4.99831 27.5715 4.45846 25.3112 4.45862 23.0186V20.926C4.48473 18.3267 5.17828 15.7777 6.47274 13.5235C5.83504 11.4588 5.63134 9.2845 5.87442 7.13728C6.1175 4.99005 6.80212 2.91632 7.88524 1.04643C8.06409 0.725759 8.32617 0.4593 8.64383 0.275151C8.96148 0.0910026 9.32295 -0.0040112 9.6901 0.000129797C12.1277 -0.0059986 14.5328 0.558589 16.713 1.6487C18.8933 2.73881 20.788 4.32418 22.2456 6.2779H28.5234C29.981 4.32418 31.8758 2.73881 34.056 1.6487C36.2363 0.558589 38.6414 -0.0059986 41.079 0.000129797C41.4461 -0.0040112 41.8076 0.0910026 42.1252 0.275151C42.4429 0.4593 42.705 0.725759 42.8838 1.04643C43.9669 2.91632 44.6516 4.99005 44.8946 7.13728C45.1377 9.2845 44.934 11.4588 44.2963 13.5235C45.5908 15.7777 46.2843 18.3267 46.3104 20.926V23.0186C46.3106 25.3112 45.7708 27.5715 44.7346 29.6165C43.6985 31.6615 42.1952 33.4337 40.3466 34.7895C41.532 35.5479 42.5078 36.5922 43.1842 37.8263C43.8607 39.0603 44.2161 40.4446 44.2178 41.852V43.9445C44.2178 45.0545 44.6588 46.119 45.4437 46.9039C46.2285 47.6888 47.2931 48.1297 48.403 48.1297C48.958 48.1297 49.4903 48.3502 49.8827 48.7426C50.2752 49.1351 50.4956 49.6673 50.4956 50.2223Z" fill="url(#paint0_linear_115_30)"/>
<defs>
<linearGradient id="paint0_linear_115_30" x1="75.5329" y1="44.6419" x2="-30.5851" y2="43.749" gradientUnits="userSpaceOnUse">
<stop stop-color="#76A5FF"/>
<stop offset="1" stop-color="#FFB5EA"/>
</linearGradient>
</defs>
</svg>
