<svg width="53" height="54" viewBox="0 0 53 54" fill="none" xmlns="http://www.w3.org/2000/svg">
<path d="M48.2827 0.743828H4.33826C3.22828 0.743828 2.16376 1.18477 1.37889 1.96964C0.594014 2.75451 0.153076 3.81903 0.153076 4.92901V48.8734C0.153076 49.9834 0.594014 51.0479 1.37889 51.8328C2.16376 52.6177 3.22828 53.0586 4.33826 53.0586H48.2827C49.3927 53.0586 50.4572 52.6177 51.242 51.8328C52.0269 51.0479 52.4679 49.9834 52.4679 48.8734V4.92901C52.4679 3.81903 52.0269 2.75451 51.242 1.96964C50.4572 1.18477 49.3927 0.743828 48.2827 0.743828ZM17.9401 39.4568C17.9401 40.0118 17.7196 40.544 17.3272 40.9365C16.9348 41.3289 16.4025 41.5494 15.8475 41.5494C15.2925 41.5494 14.7603 41.3289 14.3678 40.9365C13.9754 40.544 13.7549 40.0118 13.7549 39.4568V22.716C13.7549 22.161 13.9754 21.6288 14.3678 21.2364C14.7603 20.8439 15.2925 20.6234 15.8475 20.6234C16.4025 20.6234 16.9348 20.8439 17.3272 21.2364C17.7196 21.6288 17.9401 22.161 17.9401 22.716V39.4568ZM15.8475 17.4846C15.2267 17.4846 14.6198 17.3005 14.1036 16.9556C13.5875 16.6107 13.1851 16.1204 12.9476 15.5469C12.71 14.9733 12.6478 14.3422 12.7689 13.7333C12.8901 13.1244 13.189 12.5651 13.628 12.1261C14.067 11.6872 14.6263 11.3882 15.2351 11.2671C15.844 11.146 16.4752 11.2081 17.0487 11.4457C17.6223 11.6833 18.1125 12.0856 18.4574 12.6018C18.8023 13.118 18.9864 13.7249 18.9864 14.3457C18.9864 15.1782 18.6557 15.9765 18.067 16.5652C17.4784 17.1539 16.68 17.4846 15.8475 17.4846ZM40.9586 39.4568C40.9586 40.0118 40.7381 40.544 40.3457 40.9365C39.9533 41.3289 39.421 41.5494 38.866 41.5494C38.311 41.5494 37.7788 41.3289 37.3863 40.9365C36.9939 40.544 36.7734 40.0118 36.7734 39.4568V30.0401C36.7734 28.6526 36.2223 27.322 35.2412 26.3409C34.2601 25.3598 32.9294 24.8086 31.5419 24.8086C30.1545 24.8086 28.8238 25.3598 27.8427 26.3409C26.8616 27.322 26.3105 28.6526 26.3105 30.0401V39.4568C26.3105 40.0118 26.09 40.544 25.6976 40.9365C25.3051 41.3289 24.7729 41.5494 24.2179 41.5494C23.6629 41.5494 23.1306 41.3289 22.7382 40.9365C22.3458 40.544 22.1253 40.0118 22.1253 39.4568V22.716C22.1238 22.201 22.3123 21.7036 22.6547 21.3189C22.9971 20.9342 23.4693 20.6893 23.981 20.631C24.4927 20.5727 25.0079 20.7052 25.428 21.003C25.8482 21.3008 26.1437 21.7431 26.2582 22.2452C27.6741 21.2854 29.3248 20.7293 31.0329 20.6369C32.741 20.5444 34.442 20.9189 35.9533 21.7203C37.4646 22.5217 38.7291 23.7196 39.6109 25.1854C40.4928 26.6512 40.9587 28.3295 40.9586 30.0401V39.4568Z" fill="url(#paint0_linear_115_52)"/>
<defs>
<linearGradient id="paint0_linear_115_52" x1="78.5483" y1="42.0788" x2="-31.9892" y2="41.0325" gradientUnits="userSpaceOnUse">
<stop stop-color="#76A5FF"/>
<stop offset="1" stop-color="#FFB5EA"/>
</linearGradient>
</defs>
</svg>
