<svg width="1285" height="757" viewBox="0 0 1285 757" fill="none" xmlns="http://www.w3.org/2000/svg">
<rect width="1285" height="757" rx="40" fill="#151026"/>
<g clip-path="url(#clip0_136_203)">
<g opacity="0.5" filter="url(#filter0_f_136_203)">
<path opacity="0.5" d="M868.056 140.268C864.152 165.942 886.33 191.513 878.793 217.269C876.223 223.901 877.958 239.971 905.46 251.197C923.94 277.947 1014.16 295.222 1022.13 327.35C1028.01 351 1033.29 379.4 1013.38 405.2C998.04 425.1 973.13 439.35 949.54 450.5C915.38 466.67 878.771 478.33 842.858 483.76C725.771 501.44 620.338 464.89 536.265 419.02C433.824 363.13 362.98 279.154 316.832 181.709C297.799 141.523 283.817 99.4252 279.923 53.4712C276.338 11.1602 278.272 -32.8818 284.858 -77.0158C293.243 -133.2 311.346 -191.417 346.97 -245.596C374.064 -286.803 416.243 -317.128 464.691 -339.352C530.926 -369.733 599.506 -369.981 653.124 -344.813C686.196 -329.29 715.518 -297.352 697.492 -257.809C683.741 -227.645 651.751 -202.823 626.581 -177.92C609.76 -161.279 586.289 -137.519 596.072 -118.651C612.619 -86.7358 645.622 -62.0578 676.02 -40.7438C714.853 -13.5158 763.927 0.715179 807.99 21.8002C833.368 33.9432 847.91 55.7352 858.799 78.6032C867.555 96.9892 871.403 118.258 868.056 140.268Z" fill="#7928CA"/>
</g>
<g opacity="0.3" filter="url(#filter1_f_136_203)">
<path opacity="0.5" d="M1072.83 263.734C1091.53 280.034 1120.32 275.153 1137.67 294.439C1141.9 299.914 1155.24 306.73 1174.8 290.202C1203.07 288.924 1251.83 224.688 1280.25 234.671C1301.17 242.02 1325.59 252.266 1338.17 281.594C1347.87 304.207 1349.39 331.67 1348.99 356.48C1348.41 392.43 1343.34 428.04 1333.62 459.9C1301.95 563.78 1232.07 630.47 1163.18 675.09C1079.24 729.47 985.48 743.87 890.73 731.39C851.65 726.24 813.039 716.02 775.314 695.66C740.587 676.91 706.637 652.81 674.438 624.89C633.438 589.35 594.624 544.9 565.82 488.33C543.904 445.3 536.447 395.62 537.818 345.01C539.678 275.821 566.203 220.149 606.919 189.601C632.038 170.757 668.619 163.353 692.754 198.183C711.16 224.757 718.259 263.365 728.066 296.496C734.627 318.633 744.204 349.8 762.881 351.53C794.47 354.46 826.767 340.36 855.4 326.65C891.98 309.129 922.32 276.661 956.09 251.761C975.55 237.42 998.38 236.795 1020.64 239.676C1038.53 241.997 1056.79 249.762 1072.83 263.734Z" fill="#0070F3"/>
</g>
</g>
<mask id="mask0_136_203" style="mask-type:alpha" maskUnits="userSpaceOnUse" x="0" y="0" width="1285" height="757">
<rect width="1285" height="757" rx="40" fill="#151026"/>
</mask>
<g mask="url(#mask0_136_203)">
</g>
<defs>
<filter id="filter0_f_136_203" x="28.1455" y="-612.968" width="1249.33" height="1351.27" filterUnits="userSpaceOnUse" color-interpolation-filters="sRGB">
<feFlood flood-opacity="0" result="BackgroundImageFix"/>
<feBlend mode="normal" in="SourceGraphic" in2="BackgroundImageFix" result="shape"/>
<feGaussianBlur stdDeviation="125" result="effect1_foregroundBlur_136_203"/>
</filter>
<filter id="filter1_f_136_203" x="287.661" y="-76.2383" width="1311.39" height="1061.82" filterUnits="userSpaceOnUse" color-interpolation-filters="sRGB">
<feFlood flood-opacity="0" result="BackgroundImageFix"/>
<feBlend mode="normal" in="SourceGraphic" in2="BackgroundImageFix" result="shape"/>
<feGaussianBlur stdDeviation="125" result="effect1_foregroundBlur_136_203"/>
</filter>
<clipPath id="clip0_136_203">
<rect width="1285" height="757" fill="white"/>
</clipPath>
</defs>
</svg>
