<svg width="317" height="69" viewBox="0 0 317 69" fill="none" xmlns="http://www.w3.org/2000/svg">
<path d="M30.7729 15.4287C30.5334 15.4313 30.294 15.4397 30.0549 15.454C32.7065 16.0456 35.0786 17.5301 36.7795 19.6625C38.4804 21.7949 39.4085 24.4476 39.4106 27.1828C39.4103 30.3711 38.1525 33.4287 35.9139 35.6832C33.6752 37.9376 30.6391 39.2042 27.4733 39.2043C24.8664 39.2039 22.3313 38.3441 20.2552 36.7562C18.1791 35.1684 16.6762 32.9398 15.9761 30.4109C16.0236 34.3044 17.6033 38.0224 20.3729 40.7593C23.1426 43.4963 26.8791 45.0317 30.7729 45.0329C32.1787 45.0297 33.577 44.8262 34.9254 44.4286C35.4098 42.0006 36.6173 39.776 38.3893 38.0469C40.1612 36.3178 42.4147 35.1651 44.8538 34.7402C45.3265 33.2832 45.5702 31.7616 45.5761 30.2298C45.5757 26.304 44.0158 22.5393 41.2397 19.7636C38.4636 16.9879 34.6986 15.4286 30.7729 15.4287Z" fill="#FF6600"/>
<path d="M12.0274 31.7435C11.1817 38.6738 13.5577 45.604 18.4907 50.5398C23.8265 55.8785 31.4979 58.1752 38.9075 56.7045C38.8068 56.6038 38.7062 56.503 38.5854 56.4023C36.5719 54.3877 35.3034 51.7486 35.0013 48.908C28.679 50.3988 22.0546 48.5252 17.4638 43.952C14.202 40.6884 12.269 36.3368 12.0274 31.7435ZM31.82 12.0206C36.3907 12.3026 40.6995 14.2366 43.9413 17.46C48.5119 22.0533 50.3844 28.6813 48.8944 34.9871C51.7335 35.3094 54.3711 36.5786 56.3846 38.5932C56.5055 38.7141 56.6061 38.835 56.7068 38.9558C58.1766 31.5219 55.8611 23.8463 50.5254 18.4875C45.6125 13.5718 38.7062 11.1946 31.82 12.0206Z" fill="#D01312"/>
<path d="M42.4138 44.588L46.2091 52.0914L54.459 55.1592L20.9199 19.0134L36.8252 43.0862L42.4138 44.588Z" fill="#D40000"/>
<path d="M45.0072 42.5679L50.0427 46.9682L54.459 55.2666L20.9199 19.0133L43.3341 37.4948L45.0072 42.5679Z" fill="#C40000"/>
<path d="M54.0455 47.6098L54.459 55.1592L47.0207 49.2424L45.8037 37.1974L54.0455 47.6098Z" fill="#FFCC00"/>
<path d="M85.8938 51V21.9091H95.7234C98.0056 21.9091 99.8711 22.321 101.32 23.1449C102.778 23.9593 103.858 25.0625 104.559 26.4545C105.259 27.8466 105.61 29.3996 105.61 31.1136C105.61 32.8277 105.259 34.3854 104.559 35.7869C103.867 37.1884 102.797 38.3059 101.348 39.1392C99.8995 39.9631 98.0434 40.375 95.7802 40.375H88.7347V37.25H95.6665C97.229 37.25 98.4838 36.9801 99.4308 36.4403C100.378 35.9006 101.064 35.1714 101.49 34.2528C101.926 33.3248 102.144 32.2784 102.144 31.1136C102.144 29.9489 101.926 28.9072 101.49 27.9886C101.064 27.0701 100.373 26.3504 99.4165 25.8295C98.4601 25.2992 97.1912 25.0341 95.6097 25.0341H89.4165V51H85.8938ZM114.182 37.875V51H110.83V21.9091H114.182V32.5909H114.466C114.978 31.464 115.745 30.5691 116.767 29.9062C117.8 29.2339 119.173 28.8977 120.887 28.8977C122.373 28.8977 123.676 29.196 124.793 29.7926C125.91 30.3797 126.777 31.2841 127.392 32.5057C128.017 33.7178 128.33 35.2614 128.33 37.1364V51H124.978V37.3636C124.978 35.6307 124.528 34.2907 123.628 33.3438C122.738 32.3873 121.502 31.9091 119.921 31.9091C118.822 31.9091 117.837 32.1411 116.966 32.6051C116.105 33.0691 115.423 33.7462 114.921 34.6364C114.428 35.5265 114.182 36.6061 114.182 37.875ZM143.326 51.4545C141.357 51.4545 139.628 50.9858 138.142 50.0483C136.664 49.1108 135.509 47.7992 134.676 46.1136C133.852 44.428 133.44 42.4583 133.44 40.2045C133.44 37.9318 133.852 35.9479 134.676 34.2528C135.509 32.5578 136.664 31.2415 138.142 30.304C139.628 29.3665 141.357 28.8977 143.326 28.8977C145.296 28.8977 147.02 29.3665 148.497 30.304C149.984 31.2415 151.139 32.5578 151.963 34.2528C152.796 35.9479 153.213 37.9318 153.213 40.2045C153.213 42.4583 152.796 44.428 151.963 46.1136C151.139 47.7992 149.984 49.1108 148.497 50.0483C147.02 50.9858 145.296 51.4545 143.326 51.4545ZM143.326 48.4432C144.823 48.4432 146.054 48.0597 147.02 47.2926C147.985 46.5256 148.7 45.517 149.164 44.267C149.628 43.017 149.86 41.6629 149.86 40.2045C149.86 38.7462 149.628 37.3873 149.164 36.1278C148.7 34.8684 147.985 33.8504 147.02 33.0739C146.054 32.2973 144.823 31.9091 143.326 31.9091C141.83 31.9091 140.599 32.2973 139.633 33.0739C138.667 33.8504 137.952 34.8684 137.488 36.1278C137.024 37.3873 136.792 38.7462 136.792 40.2045C136.792 41.6629 137.024 43.017 137.488 44.267C137.952 45.517 138.667 46.5256 139.633 47.2926C140.599 48.0597 141.83 48.4432 143.326 48.4432ZM167.478 51.4545C165.375 51.4545 163.562 50.9905 162.037 50.0625C160.522 49.125 159.353 47.8182 158.529 46.142C157.714 44.4564 157.307 42.4962 157.307 40.2614C157.307 38.0265 157.714 36.0568 158.529 34.3523C159.353 32.6383 160.498 31.303 161.966 30.3466C163.444 29.3807 165.167 28.8977 167.137 28.8977C168.273 28.8977 169.395 29.0871 170.503 29.4659C171.611 29.8447 172.62 30.4602 173.529 31.3125C174.438 32.1553 175.162 33.2727 175.702 34.6648C176.242 36.0568 176.512 37.7708 176.512 39.8068V41.2273H159.694V38.3295H173.103C173.103 37.0985 172.856 36 172.364 35.0341C171.881 34.0682 171.19 33.3059 170.29 32.7472C169.4 32.1884 168.349 31.9091 167.137 31.9091C165.801 31.9091 164.646 32.2405 163.671 32.9034C162.705 33.5568 161.962 34.4091 161.441 35.4602C160.92 36.5114 160.659 37.6383 160.659 38.8409V40.7727C160.659 42.4205 160.944 43.8172 161.512 44.9631C162.089 46.0994 162.89 46.9659 163.912 47.5625C164.935 48.1496 166.123 48.4432 167.478 48.4432C168.358 48.4432 169.154 48.3201 169.864 48.0739C170.584 47.8182 171.204 47.4394 171.725 46.9375C172.246 46.4261 172.648 45.7917 172.932 45.0341L176.171 45.9432C175.83 47.0417 175.257 48.0076 174.452 48.8409C173.647 49.6648 172.653 50.3087 171.469 50.7727C170.285 51.2273 168.955 51.4545 167.478 51.4545ZM184.963 37.875V51H181.611V29.1818H184.85V32.5909H185.134C185.645 31.483 186.422 30.5928 187.463 29.9205C188.505 29.2386 189.85 28.8977 191.498 28.8977C192.975 28.8977 194.267 29.2008 195.375 29.8068C196.483 30.4034 197.345 31.3125 197.961 32.5341C198.576 33.7462 198.884 35.2803 198.884 37.1364V51H195.532V37.3636C195.532 35.6496 195.087 34.3144 194.196 33.358C193.306 32.392 192.085 31.9091 190.532 31.9091C189.462 31.9091 188.505 32.1411 187.662 32.6051C186.829 33.0691 186.171 33.7462 185.688 34.6364C185.205 35.5265 184.963 36.6061 184.963 37.875ZM205.01 51V29.1818H208.362V51H205.01ZM206.714 25.5455C206.061 25.5455 205.497 25.3229 205.024 24.8778C204.56 24.4328 204.328 23.8977 204.328 23.2727C204.328 22.6477 204.56 22.1127 205.024 21.6676C205.497 21.2225 206.061 21 206.714 21C207.368 21 207.926 21.2225 208.39 21.6676C208.864 22.1127 209.1 22.6477 209.1 23.2727C209.1 23.8977 208.864 24.4328 208.39 24.8778C207.926 25.3229 207.368 25.5455 206.714 25.5455ZM217.002 29.1818L222.229 38.1023L227.456 29.1818H231.32L224.275 40.0909L231.32 51H227.456L222.229 42.5341L217.002 51H213.138L220.07 40.0909L213.138 29.1818H217.002ZM236.558 51V21.9091H240.081V47.875H253.603V51H236.558ZM259.058 21.9091H263.262L273.149 46.0568H273.49L283.376 21.9091H287.581V51H284.285V28.8977H284.001L274.91 51H271.728L262.637 28.8977H262.353V51H259.058V21.9091ZM310.553 29.1818C310.382 27.7424 309.691 26.625 308.479 25.8295C307.267 25.0341 305.78 24.6364 304.019 24.6364C302.731 24.6364 301.604 24.8447 300.638 25.2614C299.682 25.678 298.934 26.2509 298.394 26.9801C297.864 27.7093 297.598 28.5379 297.598 29.4659C297.598 30.2424 297.783 30.91 298.152 31.4688C298.531 32.018 299.014 32.4773 299.601 32.8466C300.188 33.2064 300.804 33.5047 301.448 33.7415C302.092 33.9687 302.684 34.1534 303.223 34.2955L306.178 35.0909C306.935 35.2898 307.778 35.5644 308.706 35.9148C309.644 36.2652 310.539 36.7434 311.391 37.3494C312.253 37.946 312.963 38.7131 313.522 39.6506C314.08 40.5881 314.36 41.7386 314.36 43.1023C314.36 44.6742 313.948 46.0947 313.124 47.3636C312.31 48.6326 311.116 49.6411 309.544 50.3892C307.982 51.1373 306.083 51.5114 303.848 51.5114C301.765 51.5114 299.961 51.1752 298.436 50.5028C296.921 49.8305 295.728 48.893 294.857 47.6903C293.995 46.4877 293.507 45.0909 293.394 43.5H297.03C297.125 44.5985 297.494 45.5076 298.138 46.2273C298.792 46.9375 299.615 47.4678 300.61 47.8182C301.614 48.1591 302.693 48.3295 303.848 48.3295C305.193 48.3295 306.4 48.1117 307.471 47.6761C308.541 47.2311 309.388 46.6155 310.013 45.8295C310.638 45.0341 310.951 44.1061 310.951 43.0455C310.951 42.0795 310.681 41.2936 310.141 40.6875C309.601 40.0814 308.891 39.589 308.01 39.2102C307.13 38.8314 306.178 38.5 305.155 38.2159L301.576 37.1932C299.303 36.5398 297.504 35.607 296.178 34.3949C294.852 33.1828 294.189 31.5966 294.189 29.6364C294.189 28.0076 294.63 26.5871 295.51 25.375C296.4 24.1534 297.594 23.2064 299.09 22.5341C300.596 21.8523 302.276 21.5114 304.132 21.5114C306.007 21.5114 307.674 21.8475 309.132 22.5199C310.591 23.1828 311.746 24.0919 312.598 25.2472C313.46 26.4025 313.915 27.714 313.962 29.1818H310.553Z" fill="white"/>
</svg>
