<svg width="234" height="69" viewBox="0 0 234 69" fill="none" xmlns="http://www.w3.org/2000/svg">
<path d="M92.9171 27.4H85.5811V47H87.6531V40.812H92.9171C97.9011 40.812 100.925 38.292 100.925 34.12C100.925 29.92 97.9011 27.4 92.9171 27.4ZM92.8611 38.992H87.6531V29.192H92.8611C96.7811 29.192 98.8531 30.984 98.8531 34.12C98.8531 37.2 96.7811 38.992 92.8611 38.992ZM122.541 27.4V36.136H110.277V27.4H108.205V47H110.277V37.956H122.541V47H124.585V27.4H122.541ZM142.351 47.168C148.231 47.168 152.627 42.94 152.627 37.2C152.627 31.46 148.231 27.232 142.351 27.232C136.415 27.232 132.047 31.488 132.047 37.2C132.047 42.912 136.415 47.168 142.351 47.168ZM142.351 45.32C137.619 45.32 134.091 41.876 134.091 37.2C134.091 32.524 137.619 29.08 142.351 29.08C147.055 29.08 150.555 32.524 150.555 37.2C150.555 41.876 147.055 45.32 142.351 45.32ZM162.143 45.208V37.928H172.279V36.164H162.143V29.192H173.511V27.4H160.071V47H173.931V45.208H162.143ZM195.937 27.4V43.304L183.309 27.4H181.601V47H183.673V31.096L196.273 47H197.981V27.4H195.937ZM207.179 47H209.251V27.4H207.179V47ZM233.128 47L225.652 36.864L232.596 27.4H230.356L224.476 35.408L218.568 27.4H216.188L223.16 36.92L215.712 47H218.092L224.392 38.376L230.72 47H233.128Z" fill="black"/>
<path d="M30.7729 15.4286C30.5334 15.4312 30.294 15.4396 30.0549 15.4539C32.7065 16.0455 35.0786 17.53 36.7795 19.6624C38.4804 21.7947 39.4085 24.4475 39.4106 27.1827C39.4103 30.371 38.1525 33.4286 35.9139 35.683C33.6752 37.9375 30.6391 39.2041 27.4733 39.2042C24.8664 39.2038 22.3313 38.3439 20.2552 36.7561C18.1791 35.1683 16.6762 32.9397 15.9761 30.4107C16.0236 34.3043 17.6033 38.0223 20.3729 40.7592C23.1426 43.4961 26.8791 45.0316 30.7729 45.0328C32.1787 45.0296 33.577 44.8261 34.9254 44.4285C35.4098 42.0005 36.6173 39.7759 38.3893 38.0468C40.1612 36.3177 42.4147 35.165 44.8538 34.7401C45.3265 33.283 45.5702 31.7614 45.5761 30.2296C45.5757 26.3039 44.0158 22.5391 41.2397 19.7634C38.4636 16.9877 34.6986 15.4285 30.7729 15.4286Z" fill="#FF6600"/>
<path d="M12.0274 31.7435C11.1817 38.6738 13.5577 45.604 18.4907 50.5398C23.8265 55.8785 31.4979 58.1752 38.9075 56.7045C38.8068 56.6038 38.7062 56.503 38.5854 56.4023C36.5719 54.3877 35.3034 51.7486 35.0013 48.908C28.679 50.3988 22.0546 48.5252 17.4638 43.952C14.202 40.6884 12.269 36.3368 12.0274 31.7435ZM31.82 12.0206C36.3907 12.3026 40.6995 14.2366 43.9413 17.46C48.5119 22.0533 50.3844 28.6813 48.8944 34.9871C51.7335 35.3094 54.3711 36.5786 56.3846 38.5932C56.5055 38.7141 56.6061 38.835 56.7068 38.9558C58.1766 31.5219 55.8611 23.8463 50.5254 18.4875C45.6125 13.5718 38.7062 11.1946 31.82 12.0206Z" fill="#D01312"/>
<path d="M42.4138 44.5879L46.2091 52.0912L54.459 55.1591L20.9199 19.0133L36.8252 43.0861L42.4138 44.5879Z" fill="#D40000"/>
<path d="M45.0072 42.5679L50.0427 46.9682L54.459 55.2666L20.9199 19.0133L43.3341 37.4948L45.0072 42.5679Z" fill="#C40000"/>
<path d="M54.0455 47.6097L54.459 55.1591L47.0207 49.2423L45.8037 37.1972L54.0455 47.6097Z" fill="#FFCC00"/>
</svg>
