<svg width="214" height="64" viewBox="0 0 214 64" fill="none" xmlns="http://www.w3.org/2000/svg">
<path d="M28.543 14.3105C28.3208 14.313 28.0987 14.3208 27.877 14.334C30.3364 14.8827 32.5366 16.2597 34.1143 18.2375C35.6919 20.2154 36.5528 22.6759 36.5547 25.2129C36.5544 28.1702 35.3878 31.0062 33.3114 33.0973C31.235 35.1883 28.4189 36.3631 25.4824 36.3633C23.0644 36.3629 20.713 35.5654 18.7874 34.0926C16.8618 32.6198 15.4678 30.5527 14.8184 28.207C14.8624 31.8184 16.3277 35.267 18.8966 37.8056C21.4656 40.3442 24.9313 41.7684 28.543 41.7695C29.8469 41.7665 31.1438 41.5778 32.3945 41.209C32.8439 38.957 33.9639 36.8935 35.6074 35.2897C37.251 33.6859 39.3412 32.6168 41.6035 32.2227C42.0419 30.8712 42.2679 29.4599 42.2734 28.0391C42.273 24.3978 40.8263 20.9058 38.2513 18.3313C35.6764 15.7567 32.1842 14.3104 28.543 14.3105Z" fill="#FF6600"/>
<path d="M11.1558 29.4433C10.3715 35.8713 12.5752 42.2994 17.1508 46.8775C22.0999 51.8293 29.2154 53.9596 36.0881 52.5955C35.9948 52.502 35.9014 52.4086 35.7893 52.3152C33.9217 50.4466 32.7452 47.9987 32.465 45.3639C26.6008 46.7467 20.4564 45.0089 16.1983 40.7671C13.1728 37.74 11.38 33.7037 11.1558 29.4433ZM29.5142 11.1495C33.7537 11.4111 37.7503 13.205 40.7571 16.1948C44.9965 20.4552 46.7334 26.603 45.3514 32.4518C47.9847 32.7507 50.4312 33.928 52.2988 35.7966C52.4109 35.9087 52.5042 36.0208 52.5976 36.1329C53.9609 29.2377 51.8132 22.1183 46.8641 17.1478C42.3072 12.5884 35.9014 10.3834 29.5142 11.1495Z" fill="#D01312"/>
<path d="M39.3402 41.357L42.8605 48.3166L50.5126 51.1621L19.4039 17.6356L34.1566 39.964L39.3402 41.357Z" fill="#D40000"/>
<path d="M41.7457 39.4832L46.4164 43.5646L50.5126 51.2617L19.4039 17.6355L40.1938 34.7777L41.7457 39.4832Z" fill="#C40000"/>
<path d="M50.1292 44.1598L50.5127 51.1621L43.6134 45.6741L42.4846 34.5019L50.1292 44.1598Z" fill="#FFCC00"/>
<path d="M93.024 13.7H86.736V30.5H88.512V25.196H93.024C97.296 25.196 99.888 23.036 99.888 19.46C99.888 15.86 97.296 13.7 93.024 13.7ZM92.976 23.636H88.512V15.236H92.976C96.336 15.236 98.112 16.772 98.112 19.46C98.112 22.1 96.336 23.636 92.976 23.636ZM118.416 13.7V21.188H107.904V13.7H106.128V30.5H107.904V22.748H118.416V30.5H120.168V13.7H118.416ZM135.396 30.644C140.436 30.644 144.204 27.02 144.204 22.1C144.204 17.18 140.436 13.556 135.396 13.556C130.308 13.556 126.564 17.204 126.564 22.1C126.564 26.996 130.308 30.644 135.396 30.644ZM135.396 29.06C131.34 29.06 128.316 26.108 128.316 22.1C128.316 18.092 131.34 15.14 135.396 15.14C139.428 15.14 142.428 18.092 142.428 22.1C142.428 26.108 139.428 29.06 135.396 29.06ZM152.36 28.964V22.724H161.048V21.212H152.36V15.236H162.104V13.7H150.584V30.5H162.464V28.964H152.36ZM181.327 13.7V27.332L170.503 13.7H169.039V30.5H170.815V16.868L181.615 30.5H183.079V13.7H181.327ZM190.963 30.5H192.739V13.7H190.963V30.5ZM213.205 30.5L206.797 21.812L212.749 13.7H210.829L205.789 20.564L200.725 13.7H198.685L204.661 21.86L198.277 30.5H200.317L205.717 23.108L211.141 30.5H213.205Z" fill="white"/>
<path d="M89.008 51.476V47.316H94.8V46.308H89.008V42.324H95.504V41.3H87.824V52.5H95.744V51.476H89.008ZM102.127 52.5H106.687C110.271 52.5 112.687 50.196 112.687 46.9C112.687 43.604 110.271 41.3 106.687 41.3H102.127V52.5ZM103.311 51.476V42.324H106.623C109.599 42.324 111.519 44.212 111.519 46.9C111.519 49.588 109.599 51.476 106.623 51.476H103.311ZM123.458 52.596C126.322 52.596 128.05 50.932 128.05 47.716V41.3H126.898V47.668C126.898 50.324 125.65 51.54 123.458 51.54C121.282 51.54 120.034 50.324 120.034 47.668V41.3H118.85V47.716C118.85 50.932 120.594 52.596 123.458 52.596ZM140.082 52.596C141.73 52.596 143.202 52.036 144.194 50.948L143.442 50.196C142.53 51.14 141.41 51.54 140.13 51.54C137.426 51.54 135.394 49.556 135.394 46.9C135.394 44.244 137.426 42.26 140.13 42.26C141.41 42.26 142.53 42.66 143.442 43.588L144.194 42.836C143.202 41.748 141.73 41.204 140.098 41.204C136.722 41.204 134.226 43.62 134.226 46.9C134.226 50.18 136.722 52.596 140.082 52.596ZM158.405 52.5H159.653L154.533 41.3H153.365L148.245 52.5H149.477L150.821 49.508H157.061L158.405 52.5ZM151.253 48.548L153.941 42.532L156.629 48.548H151.253ZM166.719 52.5H167.903V42.324H171.839V41.3H162.783V42.324H166.719V52.5ZM177.33 52.5H178.514V41.3H177.33V52.5ZM190.654 52.596C194.014 52.596 196.526 50.18 196.526 46.9C196.526 43.62 194.014 41.204 190.654 41.204C187.262 41.204 184.766 43.636 184.766 46.9C184.766 50.164 187.262 52.596 190.654 52.596ZM190.654 51.54C187.95 51.54 185.934 49.572 185.934 46.9C185.934 44.228 187.95 42.26 190.654 42.26C193.342 42.26 195.342 44.228 195.342 46.9C195.342 49.572 193.342 51.54 190.654 51.54ZM210.972 41.3V50.388L203.756 41.3H202.78V52.5H203.964V43.412L211.164 52.5H212.14V41.3H210.972Z" fill="white"/>
</svg>
