<svg width="139" height="32" viewBox="0 0 139 32" fill="none" xmlns="http://www.w3.org/2000/svg">
<path d="M19.9237 7.40341L14.3839 7.74432C14.2892 7.27083 14.0856 6.8447 13.7731 6.46591C13.4606 6.07765 13.0487 5.76989 12.5373 5.54261C12.0354 5.30587 11.4341 5.1875 10.7333 5.1875C9.79581 5.1875 9.00509 5.38636 8.36115 5.78409C7.71721 6.17235 7.39524 6.69318 7.39524 7.34659C7.39524 7.86742 7.60358 8.30776 8.02024 8.66761C8.43691 9.02746 9.15187 9.31629 10.1651 9.53409L14.114 10.3295C16.2352 10.7652 17.8166 11.4659 18.8583 12.4318C19.9 13.3977 20.4208 14.6667 20.4208 16.2386C20.4208 17.6686 19.9994 18.9233 19.1566 20.0028C18.3233 21.0824 17.1774 21.9252 15.7191 22.5312C14.2702 23.1278 12.5988 23.4261 10.7049 23.4261C7.81664 23.4261 5.51551 22.8248 3.80149 21.6222C2.09695 20.41 1.09789 18.7623 0.804332 16.679L6.75604 16.3665C6.93596 17.2472 7.37157 17.9195 8.06286 18.3835C8.75414 18.8381 9.63956 19.0653 10.7191 19.0653C11.7797 19.0653 12.632 18.8617 13.2759 18.4545C13.9293 18.0379 14.2608 17.5028 14.2702 16.8494C14.2608 16.3002 14.0288 15.8504 13.5742 15.5C13.1197 15.1402 12.4189 14.8655 11.4719 14.6761L7.69354 13.9233C5.56286 13.4972 3.97668 12.7585 2.93501 11.7074C1.90282 10.6562 1.38672 9.31629 1.38672 7.6875C1.38672 6.28598 1.76551 5.0786 2.52308 4.06534C3.29013 3.05208 4.36494 2.27083 5.74751 1.72159C7.13956 1.17235 8.76835 0.897727 10.6339 0.897727C13.3896 0.897727 15.5581 1.48011 17.1396 2.64489C18.7305 3.80966 19.6585 5.39583 19.9237 7.40341ZM26.767 31.1818C25.9999 31.1818 25.2802 31.1203 24.6079 30.9972C23.945 30.8835 23.3958 30.7367 22.9602 30.5568L24.3238 26.0398C25.034 26.2576 25.6732 26.3759 26.2414 26.3949C26.8191 26.4138 27.3162 26.2813 27.7329 25.9972C28.159 25.7131 28.5047 25.2301 28.7698 24.5483L29.1249 23.625L21.2982 1.18182H27.6619L32.1789 17.2045H32.4062L36.9658 1.18182H43.3721L34.892 25.358C34.4848 26.5322 33.9308 27.5549 33.23 28.4261C32.5388 29.3068 31.6628 29.9839 30.6022 30.4574C29.5416 30.9403 28.2632 31.1818 26.767 31.1818ZM51.3198 10.3864V23H45.2687V1.18182H51.0357V5.03125H51.2914C51.7744 3.76231 52.584 2.75852 53.7204 2.01989C54.8567 1.27178 56.2346 0.897727 57.8539 0.897727C59.3691 0.897727 60.6901 1.22917 61.817 1.89205C62.9439 2.55492 63.8198 3.50189 64.4448 4.73295C65.0698 5.95454 65.3823 7.41288 65.3823 9.10795V23H59.3312V10.1875C59.3406 8.85227 58.9997 7.81061 58.3085 7.0625C57.6172 6.30492 56.6655 5.92614 55.4533 5.92614C54.6389 5.92614 53.9192 6.10133 53.2942 6.4517C52.6787 6.80208 52.1958 7.31345 51.8454 7.9858C51.5045 8.64867 51.3293 9.44886 51.3198 10.3864ZM83.3691 31.1818V19.5057H83.1844C82.9004 20.1117 82.4979 20.7131 81.9771 21.3097C81.4657 21.8968 80.7981 22.3845 79.9742 22.7727C79.1598 23.161 78.1655 23.3551 76.9913 23.3551C75.3341 23.3551 73.8331 22.929 72.4884 22.0767C71.1532 21.215 70.0926 19.9508 69.3066 18.2841C68.5301 16.608 68.1418 14.553 68.1418 12.1193C68.1418 9.61932 68.5443 7.54072 69.3492 5.88352C70.1541 4.21686 71.2242 2.97159 72.5594 2.14773C73.9041 1.31439 75.3767 0.897727 76.9771 0.897727C78.1987 0.897727 79.2166 1.10606 80.031 1.52273C80.8549 1.92992 81.5178 2.44129 82.0197 3.05682C82.531 3.66288 82.9193 4.25947 83.1844 4.84659H83.4401V1.18182H89.406V31.1818H83.3691ZM78.9089 18.5398C79.8843 18.5398 80.7081 18.2746 81.3805 17.7443C82.0623 17.2045 82.5831 16.4517 82.943 15.4858C83.3123 14.5199 83.4969 13.3883 83.4969 12.0909C83.4969 10.7936 83.317 9.66667 82.9572 8.71023C82.5973 7.75379 82.0765 7.01515 81.3947 6.49432C80.7129 5.97348 79.8843 5.71307 78.9089 5.71307C77.9146 5.71307 77.0765 5.98295 76.3947 6.52273C75.7129 7.0625 75.1968 7.81061 74.8464 8.76705C74.496 9.72348 74.3208 10.8314 74.3208 12.0909C74.3208 13.3598 74.496 14.482 74.8464 15.4574C75.2062 16.4233 75.7223 17.1809 76.3947 17.7301C77.0765 18.2699 77.9146 18.5398 78.9089 18.5398ZM107.055 13.7102V1.18182H113.107V23H107.297V19.0369H107.07C106.577 20.3153 105.758 21.3428 104.612 22.1193C103.476 22.8958 102.089 23.2841 100.45 23.2841C98.992 23.2841 97.7089 22.9527 96.6009 22.2898C95.493 21.6269 94.6265 20.6847 94.0015 19.4631C93.386 18.2415 93.0735 16.7784 93.064 15.0739V1.18182H99.1151V13.9943C99.1246 15.2822 99.4702 16.3002 100.152 17.0483C100.834 17.7964 101.748 18.1705 102.894 18.1705C103.623 18.1705 104.305 18.0047 104.939 17.6733C105.573 17.3324 106.085 16.8305 106.473 16.1676C106.871 15.5047 107.065 14.6856 107.055 13.7102ZM116.747 31.1818V1.18182H122.713V4.84659H122.983C123.248 4.25947 123.631 3.66288 124.133 3.05682C124.645 2.44129 125.307 1.92992 126.122 1.52273C126.946 1.10606 127.968 0.897727 129.19 0.897727C130.781 0.897727 132.249 1.31439 133.593 2.14773C134.938 2.97159 136.013 4.21686 136.818 5.88352C137.623 7.54072 138.025 9.61932 138.025 12.1193C138.025 14.553 137.632 16.608 136.846 18.2841C136.07 19.9508 135.009 21.215 133.664 22.0767C132.329 22.929 130.833 23.3551 129.176 23.3551C128.002 23.3551 127.002 23.161 126.179 22.7727C125.364 22.3845 124.697 21.8968 124.176 21.3097C123.655 20.7131 123.257 20.1117 122.983 19.5057H122.798V31.1818H116.747ZM122.67 12.0909C122.67 13.3883 122.85 14.5199 123.21 15.4858C123.57 16.4517 124.091 17.2045 124.772 17.7443C125.454 18.2746 126.283 18.5398 127.258 18.5398C128.243 18.5398 129.076 18.2699 129.758 17.7301C130.44 17.1809 130.956 16.4233 131.306 15.4574C131.666 14.482 131.846 13.3598 131.846 12.0909C131.846 10.8314 131.671 9.72348 131.321 8.76705C130.97 7.81061 130.454 7.0625 129.772 6.52273C129.091 5.98295 128.252 5.71307 127.258 5.71307C126.273 5.71307 125.44 5.97348 124.758 6.49432C124.086 7.01515 123.57 7.75379 123.21 8.71023C122.85 9.66667 122.67 10.7936 122.67 12.0909Z" fill="url(#paint0_linear_121_63)"/>
<defs>
<linearGradient id="paint0_linear_121_63" x1="-26" y1="8.00001" x2="161.5" y2="8.00001" gradientUnits="userSpaceOnUse">
<stop stop-color="#8AB9FF"/>
<stop offset="1" stop-color="#FD9DFF"/>
</linearGradient>
</defs>
</svg>
